# xmcd
#
# Track frame offsets:
#	150
#	9336
#	24539
#	45239
#	60820
#	77545
#	92819
#	106769
#	121495
#	132055
#	143745
#	161336
#	176772
#	191936
#	206183
#	218280
#	233352
#	251113
#	266802
#	277362
#
# Disc length: 4659 seconds
#
# Revision: 1
# Processed by: cddbd v1.5.2PL0 Copyright (c) Steve Scherf et al.
# Submitted via: audiograbber 1.83.01
#
DISCID=0c123114
DTITLE=Blokkmonsta - Doom Rap
DYEAR=2012
DGENRE=Rap
TTITLE0=Steh wieder auf
TTITLE1=Desert Eagle
TTITLE2=Echte Jungs mit Frauenazt, Sady K and Jasha
TTITLE3=Lava
TTITLE4=Murder 4 Hire mit C-Bo
TTITLE5=Eine wahre Begebenheit
TTITLE6=Reich sein mit Dapharao
TTITLE7=Der kleine Mann mit Uzi and King Orgasmus
TTITLE8=Doom Rap (Karibik Version)
TTITLE9=Wie ein Schatten mit Perverz
TTITLE10=Beton Dschungel mit 4.9.0 Friedhof Chiller
TTITLE11=Wen zum Teufel rufst Du an
TTITLE12=Guck nicht wie ein Hund mit Smoky
TTITLE13=Alles Schein mit Schwartz
TTITLE14=Wir sind anders mit Rako
TTITLE15=Yeahhh
TTITLE16=Ich machs einfach... mit Vero
TTITLE17=We The Crunkest mit Pastor Troy
TTITLE18=Doom Rap (Remix)
TTITLE19=Doom Rap (Ultimatum)
EXTD=
EXTT0=
EXTT1=
EXTT2=
EXTT3=
EXTT4=
EXTT5=
EXTT6=
EXTT7=
EXTT8=
EXTT9=
EXTT10=
EXTT11=
EXTT12=
EXTT13=
EXTT14=
EXTT15=
EXTT16=
EXTT17=
EXTT18=Bonus
EXTT19=Bonus
PLAYORDER=
